<svg xmlns="http://www.w3.org/2000/svg" xmlns:xlink="http://www.w3.org/1999/xlink" preserveAspectRatio="xMidYMid" width="23" height="15" viewBox="-0.5 0 23 15"> 
    <!-- bottom -->
    <line x1="0" y1="14.5" x2="21" y2="14.5" stroke="#646464"/> 
    <!-- outer arc -->
    <path d="M 0.5,14.5 A 10 10 0 0 1 13 2.5" stroke="#646464" fill="none" />
    <!--
    <path d="M 19,6.5 A 10 10 0 0 1 20.5 10.5" stroke="#646464" fill="none" />
    -->
    <!-- inner arc -->
    <path d="M 7.5,14.5 A 3 3 0 0 1 13.5 14.5" stroke="#646464" fill="none" />
    <!-- tiks -->
    <line id="tik" x1="10.5" y1="2" x2="10.5" y2="4.5" stroke="#646464"/> 
    
    <use xlink:href="#tik" transform="rotate(-35, 10.5, 12.5)"/>
    <use xlink:href="#tik" transform="rotate(-70, 10.5, 12.5)"/>
    <!--
    <use xlink:href="#tik" transform="rotate(30, 10.5, 10.5)"/>
    <use xlink:href="#tik" transform="rotate(60, 10.5, 10.5)"/>
    -->
    
    <!-- pointer --> 
    
    <line x1="10.5" y1="11" x2="10.5" y2="6.5" stroke="#646464" transform="rotate(-15,10.5,14.5)"/> 
    
    <!--
    <g id="percent" transform="translate(17.5,3.5)">
        <circle cx="0" cy="0" r="3" fill="white" fill-opacity="0.0" stroke="#646464"/>
        <text x="-1" y="1" fill="#646464" font-size="4" font-family="Consolas" font-weight="bold" textLength="1pt">&#037;</text>
    </g>
     -->
    
    
          <text x="-1" y="1" fill="#646464" font-size="13" font-family="Consolas" font-weight="bold" textLength="1pt" transform="translate(16,11)">&#037;</text>
    
</svg>
